<?xml version="1.0" encoding="UTF-8"?>
<!DOCTYPE svg PUBLIC "-//W3C//DTD SVG 1.1//EN" "http://www.w3.org/Graphics/SVG/1.1/DTD/svg11.dtd">
<svg xmlns="http://www.w3.org/2000/svg" version="1.1" width="1000px" height="238px" style="shape-rendering:geometricPrecision; text-rendering:geometricPrecision; image-rendering:optimizeQuality; fill-rule:evenodd; clip-rule:evenodd" xmlns:xlink="http://www.w3.org/1999/xlink">
<g><path style="opacity:0.97" fill="#e11e25" d="M 661.5,3.5 C 715.501,3.33334 769.501,3.50001 823.5,4C 832.966,5.13845 838.8,10.3051 841,19.5C 841.5,58.8319 841.667,98.1653 841.5,137.5C 830.5,137.5 819.5,137.5 808.5,137.5C 808.667,105.832 808.5,74.1649 808,42.5C 806.749,39.6193 804.583,37.786 801.5,37C 762.167,36.3333 722.833,36.3333 683.5,37C 680,37.8333 677.833,40 677,43.5C 676.012,83.9175 676.345,124.251 678,164.5C 679.214,166.049 680.714,167.215 682.5,168C 714.165,168.5 745.832,168.667 777.5,168.5C 777.5,179.5 777.5,190.5 777.5,201.5C 738.165,201.667 698.832,201.5 659.5,201C 650.558,199.058 645.392,193.558 644,184.5C 643.333,129.833 643.333,75.1667 644,20.5C 646.462,11.2028 652.295,5.53618 661.5,3.5 Z"/></g>
<g><path style="opacity:0.943" fill="#030706" d="M 911.5,35.5 C 929.614,35.7704 935.781,44.437 930,61.5C 922.494,69.2864 913.994,70.453 904.5,65C 896.605,56.3129 896.605,47.6463 904.5,39C 906.925,37.7874 909.259,36.6207 911.5,35.5 Z"/></g>
<g><path style="opacity:0.941" fill="#030706" d="M 974.5,35.5 C 988.827,34.6611 995.66,41.3278 995,55.5C 991.749,65.3816 984.915,69.5482 974.5,68C 961.803,63.4259 958.303,54.9259 964,42.5C 966.701,38.7483 970.201,36.415 974.5,35.5 Z"/></g>
<g><path style="opacity:0.957" fill="#030706" d="M 3.5,67.5 C 29.21,67.0468 54.8766,67.5468 80.5,69C 101.464,76.6382 112.464,91.6382 113.5,114C 111.909,138.531 99.2419,153.865 75.5,160C 59.5035,160.5 43.5035,160.667 27.5,160.5C 27.5,174.167 27.5,187.833 27.5,201.5C 19.5,201.5 11.5,201.5 3.5,201.5C 3.5,156.833 3.5,112.167 3.5,67.5 Z M 27.5,91.5 C 42.837,91.3334 58.1703,91.5001 73.5,92C 89.069,99.3136 93.2357,110.814 86,126.5C 83.4038,130.39 79.9038,133.223 75.5,135C 59.5707,136.454 43.5707,136.954 27.5,136.5C 27.5,121.5 27.5,106.5 27.5,91.5 Z"/></g>
<g><path style="opacity:0.957" fill="#030706" d="M 213.5,67.5 C 241.369,65.0255 263.869,74.6921 281,96.5C 294.216,120.48 294.882,144.814 283,169.5C 265.488,194.69 241.321,205.19 210.5,201C 178.658,196.157 159.491,177.99 153,146.5C 149.414,101.623 169.58,75.2894 213.5,67.5 Z M 219.5,89.5 C 239.436,89.2163 254.936,97.2163 266,113.5C 274.958,132.372 272.625,149.705 259,165.5C 237.787,181.96 215.287,183.793 191.5,171C 173.599,156.954 168.432,139.12 176,117.5C 185.28,99.9493 199.78,90.616 219.5,89.5 Z"/></g>
<g><path style="opacity:0.958" fill="#030706" d="M 330.5,67.5 C 355.885,67.0376 381.218,67.5376 406.5,69C 430.579,77.6356 441.745,94.8022 440,120.5C 435.319,142.182 422.153,155.682 400.5,161C 413.833,174.333 427.167,187.667 440.5,201C 429.167,201.667 417.833,201.667 406.5,201C 393.167,187.667 379.833,174.333 366.5,161C 362.514,160.501 358.514,160.334 354.5,160.5C 354.5,174.167 354.5,187.833 354.5,201.5C 346.5,201.5 338.5,201.5 330.5,201.5C 330.5,156.833 330.5,112.167 330.5,67.5 Z M 352.5,91.5 C 367.837,91.3334 383.17,91.5001 398.5,92C 413.973,99.4197 418.14,110.92 411,126.5C 408.079,130.092 404.579,132.925 400.5,135C 384.571,136.454 368.571,136.954 352.5,136.5C 352.5,121.5 352.5,106.5 352.5,91.5 Z"/></g>
<g><path style="opacity:0.966" fill="#030706" d="M 479.5,67.5 C 521.167,67.5 562.833,67.5 604.5,67.5C 604.5,75.1667 604.5,82.8333 604.5,90.5C 587.833,90.5 571.167,90.5 554.5,90.5C 554.5,127.5 554.5,164.5 554.5,201.5C 546.5,201.5 538.5,201.5 530.5,201.5C 530.5,164.5 530.5,127.5 530.5,90.5C 513.5,90.5 496.5,90.5 479.5,90.5C 479.5,82.8333 479.5,75.1667 479.5,67.5 Z"/></g>
<g><path style="opacity:0.954" fill="#030706" d="M 903.5,83.5 C 911.5,83.5 919.5,83.5 927.5,83.5C 927.5,122.833 927.5,162.167 927.5,201.5C 919.5,201.5 911.5,201.5 903.5,201.5C 903.5,162.167 903.5,122.833 903.5,83.5 Z"/></g>
<g><path style="opacity:0.954" fill="#030706" d="M 966.5,83.5 C 974.5,83.5 982.5,83.5 990.5,83.5C 990.5,122.833 990.5,162.167 990.5,201.5C 982.5,201.5 974.5,201.5 966.5,201.5C 966.5,162.167 966.5,122.833 966.5,83.5 Z"/></g>
<g><path style="opacity:0.955" fill="#e11e25" d="M 808.5,168.5 C 830.167,168.5 851.833,168.5 873.5,168.5C 873.5,179.5 873.5,190.5 873.5,201.5C 862.833,201.5 852.167,201.5 841.5,201.5C 841.5,212.167 841.5,222.833 841.5,233.5C 830.5,233.5 819.5,233.5 808.5,233.5C 808.5,211.833 808.5,190.167 808.5,168.5 Z"/></g>
</svg>
